<svg id="图层_1" data-name="图层 1" xmlns="http://www.w3.org/2000/svg" xmlns:xlink="http://www.w3.org/1999/xlink" viewBox="0 0 1024 1024"><defs><style>.cls-1{fill:#fff;}.cls-1,.cls-13,.cls-14,.cls-15,.cls-3,.cls-6,.cls-8{fill-rule:evenodd;}.cls-2{fill:url(#未命名的渐变_5);}.cls-3{fill:#f4f9ff;}.cls-4{mask:url(#mask);}.cls-5,.cls-8{fill:#9abdff;}.cls-6{fill:#3677ff;}.cls-7{mask:url(#mask-5);}.cls-9{mask:url(#mask-8);}.cls-10{fill:url(#未命名的渐变_2);}.cls-11{fill:url(#未命名的渐变_3);}.cls-12{fill:url(#未命名的渐变_4);}.cls-13{fill:#caddff;}.cls-14{fill:#e9f1ff;}.cls-15{fill:url(#未命名的渐变_5-2);}</style><linearGradient id="未命名的渐变_5" x1="-1031.95" y1="1015.51" x2="-1031.95" y2="1013.47" gradientTransform="matrix(138.38, 0, 0, -27.1, 143315.65, 27782.6)" gradientUnits="userSpaceOnUse"><stop offset="0" stop-color="#619bff"/><stop offset="1" stop-color="#3375ff"/></linearGradient><mask id="mask" x="405.5" y="283.37" width="217.53" height="130.73" maskUnits="userSpaceOnUse"><g id="mask-3"><polygon id="path-2" class="cls-1" points="405.5 283.37 623.03 283.37 623.03 348.94 514.27 414.09 405.5 348.94 405.5 283.37"/></g></mask><mask id="mask-5" x="316.86" y="422.18" width="390.28" height="343.68" maskUnits="userSpaceOnUse"><g id="mask-5-2" data-name="mask-5"><polygon id="path-4" class="cls-1" points="512 765.86 707.14 422.18 316.86 422.18 512 765.86"/></g></mask><mask id="mask-8" x="316.86" y="307.28" width="390.28" height="343.68" maskUnits="userSpaceOnUse"><g id="mask-7-2" data-name="mask-7"><polygon id="path-6" class="cls-1" points="512 307.28 707.14 650.96 316.86 650.96 512 307.28"/></g></mask><linearGradient id="未命名的渐变_2" x1="-1034.41" y1="1023.31" x2="-1034.41" y2="1021.26" gradientTransform="matrix(180.15, 0, 0, -180.15, 186855.57, 184698.88)" gradientUnits="userSpaceOnUse"><stop offset="0" stop-color="#e7f0ff"/><stop offset="1" stop-color="#6295ff"/></linearGradient><linearGradient id="未命名的渐变_3" x1="-1032.82" y1="1022.88" x2="-1032.82" y2="1020.83" gradientTransform="matrix(150.54, 0, 0, -150.54, 155983.44, 154359.8)" gradientUnits="userSpaceOnUse"><stop offset="0" stop-color="#3375ff"/><stop offset="1" stop-color="#d8e6ff"/></linearGradient><linearGradient id="未命名的渐变_4" x1="-1031.76" y1="1022.59" x2="-1031.76" y2="1020.54" gradientTransform="matrix(135.73, 0, 0, -135.73, 140547.37, 139190.25)" gradientUnits="userSpaceOnUse"><stop offset="0" stop-color="#94bcff"/><stop offset="1" stop-color="#3375ff"/></linearGradient><linearGradient id="未命名的渐变_5-2" x1="-894.33" y1="1009.17" x2="-894.33" y2="1007.12" gradientTransform="matrix(9.84, 0, 0, -24.45, 9305.42, 25188.69)" xlink:href="#未命名的渐变_5"/></defs><g id="页面-1"><g id="_4" data-name="4"><g id="编组-9"><rect id="矩形" class="cls-2" x="370.09" y="258.14" width="283.3" height="55.49" rx="3.28"/><g id="编组-5"><g id="矩形-2" data-name="矩形"><polygon id="path-2-5" data-name="path-2" class="cls-3" points="405.5 283.37 623.03 283.37 623.03 348.94 514.27 414.09 405.5 348.94 405.5 283.37"/></g><g class="cls-4"><rect id="矩形-3" data-name="矩形" class="cls-5" x="405.5" y="283.37" width="20.24" height="80.71"/></g><g class="cls-4"><rect id="矩形-4" data-name="矩形" class="cls-5" x="435.85" y="283.37" width="10.12" height="90.8"/></g><g class="cls-4"><rect id="矩形-5" data-name="矩形" class="cls-5" x="582.56" y="283.37" width="10.12" height="90.8"/></g><g class="cls-4"><rect id="矩形-6" data-name="矩形" class="cls-5" x="602.8" y="283.37" width="20.24" height="80.71"/></g></g></g><g id="编组-8"><g id="三角形"><polygon id="path-4-4" data-name="path-4" class="cls-6" points="512 765.86 316.86 422.18 707.14 422.18 512 765.86"/></g><g class="cls-7"><polygon id="三角形-2" data-name="三角形" class="cls-8" points="512 535.13 707.14 422.18 609.87 593.55 512 535.13"/></g><g class="cls-7"><polygon id="三角形-3" data-name="三角形" class="cls-8" points="512.85 537.42 512 765.86 413.67 594.02 512.85 537.42"/></g><g class="cls-7"><polygon id="三角形-4" data-name="三角形" class="cls-8" points="512.85 537.42 316.86 422.18 512.19 422.18 512.85 537.42"/></g></g><g id="编组-8-2" data-name="编组-8"><g id="三角形-5" data-name="三角形"><polygon id="path-6-4" data-name="path-6" class="cls-6" points="512 307.28 316.86 650.96 707.14 650.96 512 307.28"/></g><g class="cls-9"><polygon id="三角形-6" data-name="三角形" class="cls-8" points="512 538 707.14 650.96 609.87 479.58 512 538"/></g><g class="cls-9"><polygon id="三角形-7" data-name="三角形" class="cls-8" points="512.85 535.72 512 307.28 413.67 479.12 512.85 535.72"/></g><g class="cls-9"><polygon id="三角形-8" data-name="三角形" class="cls-8" points="512.85 535.72 316.86 650.96 512.19 650.96 512.85 535.72"/></g></g><circle id="椭圆形" class="cls-10" cx="507.41" cy="534.67" r="184.4"/><circle id="椭圆形-2" data-name="椭圆形" class="cls-11" cx="507.41" cy="534.67" r="154.09"/><circle id="椭圆形-3" data-name="椭圆形" class="cls-12" cx="507.41" cy="534.67" r="138.93"/><g id="编组-19"><polygon id="路径-14" class="cls-13" points="454.19 481.29 559.29 481.29 589.95 526.75 508.83 616.29 426.17 526.75 454.19 481.29"/><polygon id="路径-15" class="cls-1" points="452.69 481.29 470.62 526.32 508.6 481.29 545.15 526.32 559.49 481.29 452.69 481.29"/><polygon id="路径-16" class="cls-14" points="425.36 526.32 470.62 526.32 452.69 481.29 425.36 526.32"/><polygon id="路径-16-2" data-name="路径-16" class="cls-14" points="589.95 526.32 545.15 526.32 559.49 481.29 589.95 526.32"/><polygon id="路径-17" class="cls-14" points="508.6 481.29 470.62 526.32 508.6 616.29 545.15 526.32 508.6 481.29"/><polygon id="路径-17-2" data-name="路径-17" class="cls-15" points="508.08 512.17 497.81 525.91 508.08 562.24 517.95 525.91 508.08 512.17"/></g></g></g></svg>