<svg id="图层_1" data-name="图层 1" xmlns="http://www.w3.org/2000/svg" xmlns:xlink="http://www.w3.org/1999/xlink" viewBox="0 0 1024 1024"><defs><style>.cls-1,.cls-10,.cls-11,.cls-13{fill:#fff;}.cls-1,.cls-3,.cls-6{fill-rule:evenodd;}.cls-2{fill:url(#未命名的渐变_5);}.cls-3{fill:#f4f9ff;}.cls-4{mask:url(#mask);}.cls-5{fill:#9abdff;}.cls-6{fill:#3677ff;}.cls-7{fill:url(#未命名的渐变_2);}.cls-8{fill:url(#未命名的渐变_3);}.cls-9{fill:url(#未命名的渐变_4);}.cls-10{opacity:0.5;}.cls-10,.cls-11{isolation:isolate;}.cls-11{opacity:0.48;}.cls-12{fill:#e9f1ff;}.cls-14{fill:#caddff;}.cls-15{fill:url(#未命名的渐变_5-2);}</style><linearGradient id="未命名的渐变_5" x1="-2068.77" y1="1015.42" x2="-2068.77" y2="1013.37" gradientTransform="matrix(140.37, 0, 0, -27.1, 290914.15, 27782.6)" gradientUnits="userSpaceOnUse"><stop offset="0" stop-color="#619bff"/><stop offset="1" stop-color="#3375ff"/></linearGradient><mask id="mask" x="405.76" y="285.88" width="220.66" height="130.73" maskUnits="userSpaceOnUse"><g id="mask-3"><polygon id="path-2" class="cls-1" points="405.76 285.88 626.42 285.88 626.42 351.45 516.1 416.61 405.76 351.45 405.76 285.88"/></g></mask><linearGradient id="未命名的渐变_2" x1="-2072.84" y1="1023.3" x2="-2072.84" y2="1021.25" gradientTransform="matrix(182.13, 0, 0, -180.15, 378036.84, 184698.88)" gradientUnits="userSpaceOnUse"><stop offset="0" stop-color="#e7f0ff"/><stop offset="1" stop-color="#6295ff"/></linearGradient><linearGradient id="未命名的渐变_3" x1="-2070.15" y1="1022.86" x2="-2070.15" y2="1020.81" gradientTransform="matrix(152.19, 0, 0, -150.54, 315569.15, 154359.8)" gradientUnits="userSpaceOnUse"><stop offset="0" stop-color="#3375ff"/><stop offset="1" stop-color="#d8e6ff"/></linearGradient><linearGradient id="未命名的渐变_4" x1="-2068.37" y1="1022.57" x2="-2068.37" y2="1020.52" gradientTransform="matrix(137.22, 0, 0, -135.73, 284335.3, 139190.25)" gradientUnits="userSpaceOnUse"><stop offset="0" stop-color="#94bcff"/><stop offset="1" stop-color="#3375ff"/></linearGradient><linearGradient id="未命名的渐变_5-2" x1="-2014.86" y1="1007.98" x2="-2014.86" y2="1005.93" gradientTransform="matrix(34.74, 0, 0, -23.56, 70516.45, 24280.35)" xlink:href="#未命名的渐变_5"/></defs><g id="页面-1"><g id="_5" data-name="5"><g id="编组-9"><rect id="矩形" class="cls-2" x="369.84" y="260.66" width="287.38" height="55.49" rx="3.28"/><g id="编组-5"><g id="矩形-2" data-name="矩形"><polygon id="path-2-5" data-name="path-2" class="cls-3" points="405.76 285.88 626.42 285.88 626.42 351.45 516.1 416.61 405.76 351.45 405.76 285.88"/></g><g class="cls-4"><rect id="矩形-3" data-name="矩形" class="cls-5" x="405.76" y="285.88" width="20.53" height="80.71"/></g><g class="cls-4"><rect id="矩形-4" data-name="矩形" class="cls-5" x="436.55" y="285.88" width="10.26" height="90.8"/></g><g class="cls-4"><rect id="矩形-5" data-name="矩形" class="cls-5" x="585.37" y="285.88" width="10.26" height="90.8"/></g><g class="cls-4"><rect id="矩形-6" data-name="矩形" class="cls-5" x="605.9" y="285.88" width="20.53" height="80.71"/></g></g></g><g id="编组-11"><rect id="矩形-7" data-name="矩形" class="cls-5" x="352.17" y="375.95" width="320.22" height="321.22" transform="translate(-229.36 519.39) rotate(-45)"/><polygon id="矩形-8" data-name="矩形" class="cls-6" points="400.62 651.33 515.39 536.57 285.5 536.21 400.62 651.33"/><polygon id="矩形-9" data-name="矩形" class="cls-6" points="627.4 648.58 512.27 533.46 512.63 763.35 627.4 648.58"/><polygon id="矩形-10" data-name="矩形" class="cls-6" points="397.16 424.55 512.28 539.67 511.93 309.78 397.16 424.55"/><polygon id="矩形-11" data-name="矩形" class="cls-6" points="623.94 421.79 509.17 536.56 739.06 536.91 623.94 421.79"/></g><g id="编组-11-2" data-name="编组-11"><rect id="矩形-12" data-name="矩形" class="cls-5" x="354.85" y="379.39" width="320.02" height="320.02"/><polygon id="矩形-13" data-name="矩形" class="cls-6" points="354.85 541.6 517.06 541.6 354.85 379.39 354.85 541.6"/><polygon id="矩形-14" data-name="矩形" class="cls-6" points="517.06 699.42 517.06 537.21 354.85 699.42 517.06 699.42"/><polygon id="矩形-15" data-name="矩形" class="cls-6" points="512.67 379.39 512.67 541.6 674.88 379.39 512.67 379.39"/><polygon id="矩形-16" data-name="矩形" class="cls-6" points="674.88 537.21 512.67 537.21 674.88 699.42 674.88 537.21"/></g><ellipse id="椭圆形" class="cls-7" cx="513.28" cy="537.18" rx="186.43" ry="184.4"/><ellipse id="椭圆形-2" data-name="椭圆形" class="cls-8" cx="513.28" cy="537.18" rx="155.78" ry="154.09"/><ellipse id="椭圆形-3" data-name="椭圆形" class="cls-9" cx="513.28" cy="537.18" rx="140.46" ry="138.93"/><g id="银卡-皇冠"><polygon id="路径" class="cls-10" points="452.54 539.58 471.56 517.92 499.45 534.48 484.24 555.5 452.54 539.58"/><polygon id="路径-2" data-name="路径" class="cls-11" points="471.56 517.92 479.16 548.5 492.48 530.66 471.56 517.92"/><path id="路径-3" data-name="路径" class="cls-12" d="M456.91,587.15a7.61,7.61,0,0,0,7,4.66h50.76V502.3a2.53,2.53,0,0,0-4.66-1.39L480.46,546.5a2.54,2.54,0,0,1-3.37.83L434.93,523.5a2.54,2.54,0,0,0-3.57,3.22Z"/><polygon id="路径-4" data-name="路径" class="cls-10" points="576.8 539.58 557.78 517.92 529.88 534.48 545.1 555.5 576.8 539.58"/><polygon id="路径-5" data-name="路径" class="cls-11" points="557.78 517.92 550.17 548.5 536.86 530.66 557.78 517.92"/><path id="路径-6" data-name="路径" class="cls-13" d="M598,526.72l-25.56,60.43a7.6,7.6,0,0,1-7,4.66H514.67V502.3a2.53,2.53,0,0,1,4.66-1.39l29.54,45.58a2.53,2.53,0,0,0,3.37.83L594.4,523.5a2.54,2.54,0,0,1,2.93.32,2.57,2.57,0,0,1,.65,2.9Z"/><polygon id="路径-7" data-name="路径" class="cls-14" points="514.67 562.51 560.31 591.81 469.02 591.81 514.67 562.51"/><polygon id="路径-8" data-name="路径" class="cls-15" points="514.73 585.25 479.16 537.03 500.21 537.03 498.55 541.57 514.73 563.94 530.9 541.69 529.24 537.15 550.29 537.15 514.73 585.25"/><path id="形状" class="cls-13" d="M600.89,530.66a11.4,11.4,0,0,1-9.89-5.73,11.56,11.56,0,0,1,0-11.47,11.43,11.43,0,1,1,9.89,17.2Zm-86.22-28a11.47,11.47,0,1,1,11.41-11.47A11.42,11.42,0,0,1,514.67,502.64Zm-86.22,28a11.47,11.47,0,1,1,11.41-11.46,11.4,11.4,0,0,1-11.41,11.46Z"/></g></g></g></svg>