<?xml version="1.0" standalone="no"?><!DOCTYPE svg PUBLIC "-//W3C//DTD SVG 1.1//EN" "http://www.w3.org/Graphics/SVG/1.1/DTD/svg11.dtd"><svg t="1648807177897" class="icon" viewBox="0 0 1024 1024" version="1.1" xmlns="http://www.w3.org/2000/svg" p-id="5241" xmlns:xlink="http://www.w3.org/1999/xlink" width="200" height="200"><defs><style type="text/css">@font-face { font-family: feedback-iconfont; src: url("//at.alicdn.com/t/font_1031158_u69w8yhxdu.woff2?t=1630033759944") format("woff2"), url("//at.alicdn.com/t/font_1031158_u69w8yhxdu.woff?t=1630033759944") format("woff"), url("//at.alicdn.com/t/font_1031158_u69w8yhxdu.ttf?t=1630033759944") format("truetype"); }
</style></defs><path d="M486.4 1024c-129.9456 0-252.0576-50.5856-343.9616-142.4384s-142.4384-214.016-142.4384-343.9104c0-129.9456 50.5856-252.0576 142.4384-343.9616s214.016-142.4896 343.9616-142.4896c129.9456 0 252.0576 50.5856 343.9616 142.4896s142.4384 214.016 142.4384 343.9616-50.5856 252.0576-142.4384 343.9104c-91.8528 91.8528-214.016 142.4384-343.9616 142.4384zM486.4 102.4c-239.9744 0-435.2 195.2256-435.2 435.2s195.2256 435.2 435.2 435.2 435.2-195.2256 435.2-435.2-195.2256-435.2-435.2-435.2z" p-id="5242"></path><path d="M384 742.4c-6.5536 0-13.1072-2.5088-18.1248-7.4752l-153.6-153.6c-9.984-9.984-9.984-26.2144 0-36.1984s26.2144-9.984 36.1984 0l135.4752 135.4752 340.2752-340.2752c9.984-9.984 26.2144-9.984 36.1984 0s9.984 26.2144 0 36.1984l-358.4 358.4c-5.0176 5.0176-11.5712 7.4752-18.1248 7.4752z" p-id="5243"></path></svg>